<svg width="51" height="41" viewBox="0 0 51 41" fill="none" xmlns="http://www.w3.org/2000/svg">
<path d="M6.78125 10.7812L24.2031 20.8594C25.375 21.5625 26.9375 21.1719 27.6406 19.9219L31.3906 13.4375C32.0156 12.2656 31.625 10.7031 30.4531 10L26.0781 7.5L19.5938 3.75L18.0312 2.89062C17.6406 2.65625 17.25 2.5 16.7812 2.5H9.98438C9.04688 2.5 8.1875 3.04688 7.79688 3.90625L5.84375 7.5C5.21875 8.67188 5.60938 10.1562 6.78125 10.7812ZM50.1406 16.3281L42.4844 13.8281L46.0781 6.64062C46.3125 6.09375 46.2344 5.54688 45.8438 5.15625C45.4531 4.76562 44.9062 4.6875 44.3594 4.92188L37.1719 8.51562L34.6719 0.859375C34.5156 0.390625 33.9688 0 33.5 0C32.9531 0 32.4062 0.390625 32.25 0.859375L30.2188 7.03125L31.7031 7.89062C34.125 9.21875 34.9062 12.3438 33.5 14.6875L29.75 21.1719C28.5 23.4375 25.7656 24.2969 23.4219 23.2812L20.8438 28.4375C20.6094 28.9844 20.6875 29.5312 21.0781 29.9219C21.4688 30.3125 22.0156 30.3906 22.5625 30.1562L29.75 26.5625L32.25 34.2188C32.4844 34.6875 32.9531 35 33.5 35C33.9688 35 34.5156 34.6875 34.6719 34.2188L37.1719 26.5625L44.3594 30.1562C44.9062 30.3906 45.4531 30.3125 45.8438 29.9219C46.2344 29.5312 46.3125 28.9844 46.0781 28.4375L42.4844 21.25L50.1406 18.75C50.6094 18.5156 51 18.0469 51 17.5C51 17.0312 50.6094 16.4844 50.1406 16.3281ZM1.46875 34.375C0.453125 36.1719 1 38.4375 2.79688 39.5312C4.59375 40.5469 6.85938 40 7.95312 38.2031L18.5 20.4688L12.0156 16.7188L1.46875 34.375Z" fill="url(#paint0_linear_479_793)"/>
<defs>
<linearGradient id="paint0_linear_479_793" x1="26.0007" y1="46.9884" x2="26.0007" y2="-6.99781" gradientUnits="userSpaceOnUse">
<stop stop-color="#0F3062"/>
<stop offset="1" stop-color="#39A6EF"/>
</linearGradient>
</defs>
</svg>
