<svg width="58" height="67" viewBox="0 0 58 67" fill="none" xmlns="http://www.w3.org/2000/svg">
<path d="M20.373 32.375H27.698V11.3C27.698 10.4833 27.723 9.625 27.773 8.725L22.573 13.075C22.273 13.3083 21.973 13.4583 21.673 13.525C21.3897 13.575 21.1147 13.575 20.848 13.525C20.598 13.475 20.373 13.3917 20.173 13.275C19.973 13.1417 19.823 13 19.723 12.85L17.773 10.175L28.798 0.799998H33.873V32.375H40.373V37H20.373V32.375ZM11.3721 49.648V52.216H3.66809V57.028H9.74009V59.512H3.66809V64.42H11.3721V67H0.428094V49.648H11.3721ZM26.3528 49.648V52.3H21.1208V67H17.8928V52.3H12.6608V49.648H26.3528ZM41.7913 67H39.2953C39.0153 67 38.7873 66.932 38.6113 66.796C38.4353 66.652 38.3033 66.476 38.2153 66.268L36.9193 62.728H29.7313L28.4353 66.268C28.3713 66.452 28.2473 66.62 28.0633 66.772C27.8793 66.924 27.6473 67 27.3673 67H24.8593L31.6753 49.648H34.9753L41.7913 67ZM30.5593 60.448H36.0913L33.9793 54.676C33.8753 54.42 33.7673 54.12 33.6553 53.776C33.5433 53.424 33.4313 53.044 33.3193 52.636C33.2073 53.044 33.0953 53.424 32.9833 53.776C32.8793 54.128 32.7753 54.436 32.6713 54.7L30.5593 60.448ZM57.5811 67H54.3291V52.132H46.7931V67H43.5531V49.648H57.5811V67Z" fill="#9DAFCB"/>
</svg>
