<svg width="58" height="67" viewBox="0 0 58 67" fill="none" xmlns="http://www.w3.org/2000/svg">
<path d="M29.348 0.45C31.0147 0.45 32.5397 0.699999 33.923 1.2C35.3064 1.68333 36.4897 2.375 37.473 3.275C38.4564 4.175 39.223 5.25833 39.773 6.525C40.323 7.79167 40.598 9.2 40.598 10.75C40.598 12.0833 40.398 13.3167 39.998 14.45C39.6147 15.5833 39.0897 16.6667 38.423 17.7C37.773 18.7333 37.0064 19.7333 36.123 20.7C35.2397 21.6667 34.3147 22.65 33.348 23.65L25.173 31.975C25.973 31.7417 26.7564 31.5667 27.523 31.45C28.3064 31.3167 29.048 31.25 29.748 31.25H39.023C39.6897 31.25 40.2147 31.4417 40.598 31.825C40.998 32.1917 41.198 32.6833 41.198 33.3V37H16.398V34.95C16.398 34.5333 16.4814 34.1 16.648 33.65C16.8314 33.1833 17.1147 32.7667 17.498 32.4L28.473 21.4C29.3897 20.4667 30.2064 19.575 30.923 18.725C31.6564 17.875 32.2647 17.0333 32.748 16.2C33.2314 15.3667 33.598 14.525 33.848 13.675C34.1147 12.8083 34.248 11.9 34.248 10.95C34.248 10.0833 34.123 9.325 33.873 8.675C33.623 8.00833 33.2647 7.45 32.798 7C32.348 6.55 31.798 6.21666 31.148 6C30.5147 5.76667 29.798 5.65 28.998 5.65C28.2647 5.65 27.5814 5.75833 26.948 5.975C26.3314 6.175 25.7814 6.46666 25.298 6.85C24.8147 7.21667 24.4064 7.65 24.073 8.15C23.7397 8.65 23.4897 9.2 23.323 9.8C23.0397 10.5667 22.673 11.075 22.223 11.325C21.773 11.575 21.123 11.6333 20.273 11.5L17.023 10.925C17.273 9.19166 17.7564 7.675 18.473 6.375C19.1897 5.05833 20.0814 3.96667 21.148 3.1C22.2314 2.21667 23.4647 1.55833 24.848 1.125C26.248 0.674999 27.748 0.45 29.348 0.45ZM11.3721 49.648V52.216H3.66809V57.028H9.74009V59.512H3.66809V64.42H11.3721V67H0.428094V49.648H11.3721ZM26.3528 49.648V52.3H21.1208V67H17.8928V52.3H12.6608V49.648H26.3528ZM41.7913 67H39.2953C39.0153 67 38.7873 66.932 38.6113 66.796C38.4353 66.652 38.3033 66.476 38.2153 66.268L36.9193 62.728H29.7313L28.4353 66.268C28.3713 66.452 28.2473 66.62 28.0633 66.772C27.8793 66.924 27.6473 67 27.3673 67H24.8593L31.6753 49.648H34.9753L41.7913 67ZM30.5593 60.448H36.0913L33.9793 54.676C33.8753 54.42 33.7673 54.12 33.6553 53.776C33.5433 53.424 33.4313 53.044 33.3193 52.636C33.2073 53.044 33.0953 53.424 32.9833 53.776C32.8793 54.128 32.7753 54.436 32.6713 54.7L30.5593 60.448ZM57.5811 67H54.3291V52.132H46.7931V67H43.5531V49.648H57.5811V67Z" fill="#9DAFCB"/>
</svg>
