<svg width="47" height="30" viewBox="0 0 47 30" fill="none" xmlns="http://www.w3.org/2000/svg">
<path d="M45.375 10.7812C41.7031 4.76562 33.7344 0 30.2969 0C30.2969 0 27.9531 0 23.4219 3.51562C18.8906 0 16.625 0 16.625 0C13.1875 0 5.21875 4.76562 1.54688 10.7812C0.84375 12.0312 0.765625 13.4375 1.3125 14.7656C3.26562 19.4531 9.20312 30 20.6094 30H26.3125C37.7188 30 43.6562 19.4531 45.6094 14.7656C46.1562 13.4375 46.0781 12.0312 45.375 10.7812ZM23.5 20C11.7812 20 5.92188 12.5 5.92188 12.5C5.92188 12.5 10.2969 10 16.8594 10L19.2812 10.7031C20.6094 11.0938 22.0156 11.25 23.5 11.25C24.9062 11.25 26.3125 11.0938 27.6406 10.7031L30.0625 10C36.625 10 41 12.5 41 12.5C41 12.5 35.1406 20 23.5 20Z" fill="url(#paint0_linear_479_795)"/>
<defs>
<linearGradient id="paint0_linear_479_795" x1="23.5006" y1="41.9882" x2="23.5006" y2="-12.9978" gradientUnits="userSpaceOnUse">
<stop stop-color="#0F3062"/>
<stop offset="1" stop-color="#39A6EF"/>
</linearGradient>
</defs>
</svg>
