<svg width="30" height="40" viewBox="0 0 30 40" fill="none" xmlns="http://www.w3.org/2000/svg">
<path d="M17.5 5H25C25.625 5 26.25 4.45312 26.25 3.75C26.25 3.125 25.625 2.5 25 2.5H23.125V1.875C23.125 0.859375 22.2656 0 21.25 0C20.1562 0 19.375 0.859375 19.375 1.875V2.5H17.5C16.7969 2.5 16.25 3.125 16.25 3.75C16.25 4.45312 16.7969 5 17.5 5ZM17.5 10H25C25.625 10 26.25 9.45312 26.25 8.75C26.25 8.125 25.625 7.5 25 7.5H17.5C16.7969 7.5 16.25 8.125 16.25 8.75C16.25 9.45312 16.7969 10 17.5 10ZM30 16.25V13.75C30 13.125 29.375 12.5 28.75 12.5H1.25C0.546875 12.5 0 13.125 0 13.75V16.25C0 16.9531 0.546875 17.5 1.25 17.5V35C0.546875 35 0 35.625 0 36.25V38.75C0 39.4531 0.546875 40 1.25 40H28.75C29.375 40 30 39.4531 30 38.75V36.25C30 35.625 29.375 35 28.75 35V17.5C29.375 17.5 30 16.9531 30 16.25ZM21.1719 26.9531L12.4219 34.7656C12.1875 34.9219 11.9531 35 11.6406 35C11.4062 35 11.1719 35 10.9375 34.8438C10.5469 34.5312 10.3906 33.9844 10.625 33.5156L13.2812 27.5H9.45312C8.98438 27.5 8.59375 27.2656 8.4375 26.7969C8.20312 26.4062 8.35938 25.9375 8.67188 25.625L17.4219 17.8125C17.8125 17.5 18.3594 17.4219 18.8281 17.7344C19.2188 18.0469 19.375 18.5938 19.1406 19.0625L16.6406 25H20.3906C20.8594 25 21.3281 25.3125 21.4844 25.7812C21.6406 26.1719 21.4844 26.6406 21.1719 26.9531ZM5 5H12.5C13.125 5 13.75 4.45312 13.75 3.75C13.75 3.125 13.125 2.5 12.5 2.5H10.625V1.875C10.625 0.859375 9.76562 0 8.75 0C7.65625 0 6.875 0.859375 6.875 1.875V2.5H5C4.29688 2.5 3.75 3.125 3.75 3.75C3.75 4.45312 4.29688 5 5 5ZM5 10H12.5C13.125 10 13.75 9.45312 13.75 8.75C13.75 8.125 13.125 7.5 12.5 7.5H5C4.29688 7.5 3.75 8.125 3.75 8.75C3.75 9.45312 4.29688 10 5 10Z" fill="url(#paint0_linear_479_797)"/>
<defs>
<linearGradient id="paint0_linear_479_797" x1="15.0004" y1="46.9882" x2="15.0004" y2="-7.99777" gradientUnits="userSpaceOnUse">
<stop stop-color="#0F3062"/>
<stop offset="1" stop-color="#39A6EF"/>
</linearGradient>
</defs>
</svg>
