<svg width="25" height="40" viewBox="0 0 25 40" fill="none" xmlns="http://www.w3.org/2000/svg">
<path d="M21.25 39.375C21.25 39.7656 20.9375 40 20.5469 40H4.29688C3.98438 40 3.67188 39.7656 3.67188 39.375C3.67188 37.6562 5.07812 36.25 6.79688 36.25H9.92188V27.1094C4.60938 25.8594 0.703125 20.8594 1.25 15.0781L2.5 1.17188C2.57812 0.546875 3.125 0 3.75 0H10.3906L12.9688 3.82812L6.32812 8.20312L15.7812 17.5L11.9531 9.375L18.5938 5L16.25 0H21.1719C21.7969 0 22.3438 0.546875 22.4219 1.17188L23.6719 15.0781C24.2188 20.8594 20.3125 25.8594 14.9219 27.1094V36.25H18.125C19.8438 36.25 21.25 37.6562 21.25 39.375Z" fill="url(#paint0_linear_479_798)"/>
<defs>
<linearGradient id="paint0_linear_479_798" x1="12.5003" y1="46.9882" x2="12.5003" y2="-7.99777" gradientUnits="userSpaceOnUse">
<stop stop-color="#0F3062"/>
<stop offset="1" stop-color="#39A6EF"/>
</linearGradient>
</defs>
</svg>
