<svg width="50" height="36" viewBox="0 0 50 36" fill="none" xmlns="http://www.w3.org/2000/svg">
<path d="M22.5 22.6875C22.5 18 26.7188 10.6562 32.7344 5.10938C33.2031 4.71875 33.8281 4.48438 34.4531 4.48438C34.6094 4.48438 34.7656 4.5625 35 4.5625C34.4531 2.21875 32.4219 0.5 30.0781 0.5H5C2.1875 0.5 0 2.76562 0 5.5V30.5C0 33.3125 2.1875 35.5 5 35.5H29.375C25.0781 32.6875 22.5 27.8438 22.5 22.6875ZM7.5 19.25C7.5 19.9531 6.95312 20.5 6.25 20.5C5.54688 20.5 5 19.9531 5 19.25V6.75C5 6.125 5.54688 5.5 6.25 5.5C6.95312 5.5 7.5 6.125 7.5 6.75V19.25ZM12.5 19.25C12.5 19.9531 11.9531 20.5 11.25 20.5C10.5469 20.5 10 19.9531 10 19.25V6.75C10 6.125 10.5469 5.5 11.25 5.5C11.9531 5.5 12.5 6.125 12.5 6.75V19.25ZM17.5 19.25C17.5 19.9531 16.9531 20.5 16.25 20.5C15.5469 20.5 15 19.9531 15 19.25V6.75C15 6.125 15.5469 5.5 16.25 5.5C16.9531 5.5 17.5 6.125 17.5 6.75V19.25ZM43.0469 9.79688C41.875 10.8906 40.8594 11.9844 39.9219 13.1562C38.2031 10.8906 36.4062 8.85938 34.375 6.98438C28.8281 12.0625 25 18.7031 25 22.6875C25 29.7969 30.5469 35.5 37.5 35.5C44.375 35.5 50 29.7969 50 22.6875C50 19.7188 47.0312 13.5469 43.0469 9.79688ZM42.1875 29.0938C40.8594 30.0312 39.2188 30.5 37.6562 30.5C33.4375 30.5 30 27.7656 30 23.2344C30 20.9688 31.4062 18.9375 34.2188 15.5C34.6094 15.9688 40 22.8438 40 22.8438L43.4375 18.9375C43.6719 19.3281 43.9062 19.7188 44.1406 20.1094C45.7031 23.1562 45.0781 27.0625 42.1875 29.0938Z" fill="url(#paint0_linear_479_799)"/>
<defs>
<linearGradient id="paint0_linear_479_799" x1="25.0007" y1="45.988" x2="25.0007" y2="-9.99773" gradientUnits="userSpaceOnUse">
<stop stop-color="#0F3062"/>
<stop offset="1" stop-color="#39A6EF"/>
</linearGradient>
</defs>
</svg>
