<svg width="50" height="40" viewBox="0 0 50 40" fill="none" xmlns="http://www.w3.org/2000/svg">
<path d="M12.5 34.6094C11.6406 34.9219 10.8594 35 10 35C5.78125 35 2.5 31.6406 2.5 27.5V5C1.09375 5 0 3.90625 0 2.5C0 1.17188 1.09375 0 2.5 0H17.5C18.8281 0 20 1.17188 20 2.5C20 3.90625 18.8281 5 17.5 5V24.2188L13.6719 30.4688C12.8906 31.7188 12.5 33.125 12.5 34.6094ZM7.5 12.5H12.5V5H7.5V12.5ZM40 0C41.3281 0 42.5 1.17188 42.5 2.5C42.5 3.90625 41.3281 5 40 5V16.7969L49.1406 31.7969C49.6875 32.6562 50 33.5938 50 34.6094C50 37.5781 47.5 40 44.5312 40H20.3906C17.4219 40 14.9219 37.5781 14.9219 34.6094C14.9219 33.5938 15.2344 32.6562 15.7812 31.7969L24.9219 16.7969V5C23.5938 5 22.4219 3.90625 22.4219 2.5C22.4219 1.17188 23.5938 0 24.9219 0H40ZM30 5V17.5C30 17.9688 29.8438 18.4375 29.6094 18.8281L25.7812 25H39.1406L35.3125 18.8281C35.0781 18.4375 35 17.9688 35 17.5V5H30Z" fill="url(#paint0_linear_479_796)"/>
<defs>
<linearGradient id="paint0_linear_479_796" x1="25.0007" y1="46.9884" x2="25.0007" y2="-6.99781" gradientUnits="userSpaceOnUse">
<stop stop-color="#0F3062"/>
<stop offset="1" stop-color="#39A6EF"/>
</linearGradient>
</defs>
</svg>
