<svg width="94" height="94" viewBox="0 0 94 94" fill="none" xmlns="http://www.w3.org/2000/svg">
<g filter="url(#filter0_d_791_1529)">
<path d="M73.1783 28.5C73.1783 33.3438 69.1158 37.25 64.4283 37.25C59.5846 37.25 55.6783 33.3438 55.6783 28.5C55.6783 23.8125 59.5846 19.75 64.4283 19.75C69.1158 19.75 73.1783 23.8125 73.1783 28.5ZM64.4283 34.75C67.8658 34.75 70.6783 32.0938 70.6783 28.5C70.6783 25.0625 67.8658 22.25 64.4283 22.25C60.8346 22.25 58.1783 25.0625 58.1783 28.5C58.1783 32.0938 60.8346 34.75 64.4283 34.75ZM62.0846 78.0312L47.2408 85.375C44.7408 86.625 41.9283 84.75 41.9283 82.0938V64.75C41.9283 61.1562 40.3658 57.7188 37.8658 55.0625C35.2096 52.5625 31.7721 51 28.1783 51H10.8346C8.1783 51 6.3033 48.1875 7.5533 45.6875L14.8971 30.8438C16.4596 27.875 19.4283 26 22.7096 26H37.7096C50.8346 6.3125 70.8346 4.90625 82.3971 6.9375C84.2721 7.25 85.6783 8.65625 85.9908 10.5312C88.0221 22.0938 86.6158 42.0938 66.9283 55.2188V70.2188C66.9283 73.5 65.0533 76.4688 62.0846 78.0312ZM44.1158 62.0938C63.8033 57.25 74.1158 48.0312 79.2721 38.5C84.7408 28.6562 84.7408 18.0312 83.4908 10.8438C83.3346 10.0625 82.8658 9.59375 82.0846 9.4375C74.8971 8.1875 64.2721 8.1875 54.4283 13.6562C44.8971 18.8125 35.6783 29.125 30.8346 48.8125C34.1158 49.2812 37.2408 51 39.5846 53.3438C41.9283 55.6875 43.4908 58.8125 44.1158 62.0938ZM44.4283 82.0938C44.4283 83.0312 45.3658 83.5 46.1471 83.1875L60.8346 75.8438C63.0221 74.75 64.4283 72.5625 64.4283 70.2188V56.7812C58.9596 59.9062 52.3971 62.5625 44.2721 64.5938L44.4283 64.75V82.0938ZM28.3346 48.5C30.3658 40.5312 33.0221 33.9688 36.1471 28.5H22.7096C20.3658 28.5 18.1783 29.9062 17.0846 32.0938L9.7408 46.7812C9.4283 47.5625 9.89705 48.5 10.8346 48.5H28.1783H28.3346ZM32.8658 79.4375C25.2096 87.25 6.9283 86 6.9283 86C6.9283 86 5.6783 67.7188 13.3346 60.0625C18.8033 54.75 27.5533 54.75 32.8658 60.0625C38.1783 65.375 38.1783 74.125 32.8658 79.4375ZM31.1471 61.7812C26.7721 57.4062 19.5846 57.4062 15.2096 61.7812C11.9283 65.0625 10.3658 70.8438 9.7408 76.1562C9.4283 78.8125 9.4283 81.3125 9.4283 83.0312C9.27205 83.1875 9.4283 83.3438 9.4283 83.5C9.58455 83.5 9.7408 83.5 9.89705 83.5C11.6158 83.5 14.1158 83.5 16.7721 83.1875C22.0846 82.5625 27.8658 81 31.1471 77.7188C35.5221 73.3438 35.5221 66.1562 31.1471 61.7812Z" fill="white"/>
</g>
<defs>
<filter id="filter0_d_791_1529" x="0.678223" y="0.90625" width="92.3438" height="92.3438" filterUnits="userSpaceOnUse" color-interpolation-filters="sRGB">
<feFlood flood-opacity="0" result="BackgroundImageFix"/>
<feColorMatrix in="SourceAlpha" type="matrix" values="0 0 0 0 0 0 0 0 0 0 0 0 0 0 0 0 0 0 127 0" result="hardAlpha"/>
<feOffset dy="1"/>
<feGaussianBlur stdDeviation="2.5"/>
<feComposite in2="hardAlpha" operator="out"/>
<feColorMatrix type="matrix" values="0 0 0 0 0 0 0 0 0 0 0 0 0 0 0 0 0 0 0.75 0"/>
<feBlend mode="normal" in2="BackgroundImageFix" result="effect1_dropShadow_791_1529"/>
<feBlend mode="normal" in="SourceGraphic" in2="effect1_dropShadow_791_1529" result="shape"/>
</filter>
</defs>
</svg>
