<svg width="81" height="90" viewBox="0 0 81 90" fill="none" xmlns="http://www.w3.org/2000/svg">
<g filter="url(#filter0_d_791_1531)">
<path d="M20.1979 24C20.1979 13.0625 29.1042 4 40.1979 4C51.1354 4 60.1979 13.0625 60.1979 24V26.5C60.1979 37.5938 51.1354 46.5 40.1979 46.5C29.1042 46.5 20.1979 37.5938 20.1979 26.5V24ZM57.3854 21.5H53.9479C50.3542 21.5 47.2292 19.9375 45.0417 17.2812L44.2604 18.0625C41.2917 21.8125 36.6042 24 31.7604 24H22.6979V26.5C22.6979 36.1875 30.5104 44 40.1979 44C49.7292 44 57.6979 36.1875 57.6979 26.5V24C57.6979 23.2188 57.5417 22.4375 57.3854 21.5ZM53.9479 19H56.9167C55.8229 15.5625 53.6354 12.4375 50.8229 10.25L46.6042 15.25L46.9167 15.5625C48.4792 17.75 51.1354 19 53.9479 19ZM48.6354 8.84375C46.1354 7.4375 43.1667 6.5 40.1979 6.5C31.2917 6.5 23.9479 13.0625 22.8542 21.5H31.7604C35.8229 21.5 39.7292 19.7812 42.3854 16.5L48.6354 8.84375ZM32.6979 52.2812C33.0104 51.8125 33.4792 51.5 33.9479 51.5H46.4479C46.7604 51.5 47.2292 51.8125 47.5417 52.2812C47.6979 52.5938 47.6979 53.2188 47.3854 53.5312L41.6042 61.6562L45.1979 69L52.5417 54.1562C65.1979 55.5625 75.1979 66.1875 75.1979 79.3125C75.1979 81.9688 73.0104 84 70.3542 84H9.88542C7.22917 84 5.19792 81.9688 5.19792 79.3125C5.19792 66.1875 15.0417 55.5625 27.6979 54.1562L35.0417 69L38.6354 61.6562L32.8542 53.5312C32.5417 53.2188 32.5417 52.5938 32.6979 52.2812ZM36.2917 54L40.1979 59.4688L43.9479 54H36.2917ZM26.2917 56.9688C15.6667 58.8438 7.69792 68.0625 7.69792 79.3125C7.69792 80.5625 8.63542 81.5 9.88542 81.5H38.6354L26.2917 56.9688ZM36.4479 71.6562L40.1979 79L43.7917 71.6562L40.1979 64.3125L36.4479 71.6562ZM72.6979 79.3125C72.6979 68.0625 64.5729 58.8438 53.9479 56.9688L41.6042 81.5H70.3542C71.6042 81.5 72.6979 80.5625 72.6979 79.3125Z" fill="white"/>
</g>
<defs>
<filter id="filter0_d_791_1531" x="0.197998" y="0" width="80" height="90" filterUnits="userSpaceOnUse" color-interpolation-filters="sRGB">
<feFlood flood-opacity="0" result="BackgroundImageFix"/>
<feColorMatrix in="SourceAlpha" type="matrix" values="0 0 0 0 0 0 0 0 0 0 0 0 0 0 0 0 0 0 127 0" result="hardAlpha"/>
<feOffset dy="1"/>
<feGaussianBlur stdDeviation="2.5"/>
<feComposite in2="hardAlpha" operator="out"/>
<feColorMatrix type="matrix" values="0 0 0 0 0 0 0 0 0 0 0 0 0 0 0 0 0 0 0.75 0"/>
<feBlend mode="normal" in2="BackgroundImageFix" result="effect1_dropShadow_791_1531"/>
<feBlend mode="normal" in="SourceGraphic" in2="effect1_dropShadow_791_1531" result="shape"/>
</filter>
</defs>
</svg>
