<svg width="35" height="36" viewBox="0 0 35 36" fill="none" xmlns="http://www.w3.org/2000/svg">
<path d="M19.6875 24.4375H17.9785V15.209C17.9785 14.8672 17.7734 14.5938 17.5 14.5938H15.3125C14.9707 14.5938 14.7656 14.8672 14.7656 15.1406C14.7656 15.4824 14.9707 15.6875 15.3125 15.6875H16.8848V24.4375H15.3125C14.9707 24.4375 14.7656 24.7109 14.7656 24.9844C14.7656 25.3262 14.9707 25.5312 15.3125 25.5312H19.6875C19.9609 25.5312 20.2344 25.3262 20.2344 24.9844C20.2344 24.7109 19.9609 24.4375 19.6875 24.4375ZM17.4316 12.4062C18.0469 12.4062 18.5254 11.9277 18.5254 11.3125C18.5254 10.7656 18.0469 10.2188 17.4316 10.2188C16.8848 10.2188 16.3379 10.7656 16.3379 11.3125C16.3379 11.9277 16.8848 12.4062 17.4316 12.4062ZM17.5 0.375C7.79297 0.375 0 8.23633 0 17.875C0 27.582 7.79297 35.375 17.5 35.375C27.1387 35.375 35 27.582 35 17.875C35 8.23633 27.1387 0.375 17.5 0.375ZM17.5 34.2812C8.4082 34.2812 1.09375 26.9668 1.09375 17.875C1.09375 8.85156 8.4082 1.46875 17.5 1.46875C26.5234 1.46875 33.9062 8.85156 33.9062 17.875C33.9062 26.9668 26.5234 34.2812 17.5 34.2812Z" fill="url(#paint0_linear_607_1392)"/>
<defs>
<linearGradient id="paint0_linear_607_1392" x1="17.5005" y1="28.9953" x2="17.5005" y2="7.00089" gradientUnits="userSpaceOnUse">
<stop stop-color="#0F3062"/>
<stop offset="1" stop-color="#39A6EF"/>
</linearGradient>
</defs>
</svg>
