<svg width="193" height="66" viewBox="0 0 193 66" fill="none" xmlns="http://www.w3.org/2000/svg">
<path d="M85.4122 64.9541V12.7456C85.4122 11.1668 85.7239 9.60357 86.3295 8.14553C86.935 6.68749 87.8224 5.36335 88.9409 4.24908C90.0594 3.1348 91.3868 2.25232 92.8471 1.65225C94.3074 1.05218 95.8718 0.746331 97.4506 0.752251V52.9983C97.4457 54.5739 97.1303 56.1331 96.5226 57.5868C95.9149 59.0405 95.0266 60.3602 93.9087 61.4705C92.7907 62.5808 91.4649 63.46 90.0071 64.0577C88.5492 64.6554 86.9879 64.96 85.4122 64.9541Z" fill="url(#paint0_linear_2_5)"/>
<path d="M176.277 41.3497C175.272 39.8328 173.93 38.5681 172.356 37.6543C174.496 36.997 176.53 36.0379 178.398 34.8059C180.098 33.6759 181.602 32.2757 182.851 30.6607C184.059 29.0782 184.994 27.3047 185.617 25.4136C186.261 23.4289 186.582 21.3536 186.569 19.267C186.6 16.7004 186.123 14.1531 185.167 11.7711C184.214 9.47974 182.698 7.46607 180.759 5.91689C178.47 4.1407 175.847 2.84317 173.046 2.1015C169.361 1.13265 165.56 0.67859 161.75 0.752253H142.103V39.978L142.028 44.8653C141.998 47.5773 140.965 50.182 139.128 52.1778C137.292 54.1735 134.781 55.419 132.081 55.6743H131.669C129.036 55.7452 126.42 55.2333 124.008 54.1751C121.646 53.1674 119.533 51.6554 117.817 49.7451C115.974 47.6648 114.558 45.2428 113.649 42.6165C112.577 39.5075 112.057 36.235 112.112 32.9469C112.064 29.7253 112.584 26.5204 113.649 23.4796C114.574 20.8313 116.028 18.3984 117.922 16.3286C119.756 14.3746 121.991 12.8403 124.473 11.8311C127.014 10.7817 129.398 10.0471 134.39 10.0471H139.637V0.752253C137.445 0.241258 135.201 -0.0103297 132.951 0.00266924C128.357 -0.0532907 123.795 0.77111 119.511 2.43132C115.596 3.9359 112.04 6.24313 109.071 9.20461C106.102 12.1661 103.785 15.7163 102.27 19.6268C100.627 23.8679 99.8108 28.384 99.8642 32.9319C99.818 37.4333 100.548 41.9089 102.023 46.1621C103.358 50.0282 105.476 53.5776 108.245 56.5888C110.973 59.5266 114.295 61.8515 117.989 63.41C122.077 65.097 126.467 65.9311 130.89 65.8611C134.685 65.9721 138.471 65.4269 142.081 64.2495C149.359 61.626 153.647 52.7509 153.872 45.8322L154.029 41.1698L154.067 30.8406V9.98713H161.727C166.155 9.98713 169.446 10.8616 171.599 12.6107C173.753 14.3597 174.83 16.8708 174.83 20.144C174.846 21.6801 174.574 23.2057 174.028 24.6415C173.523 25.9904 172.712 27.204 171.659 28.187C170.458 29.2501 169.045 30.0471 167.514 30.5257C165.606 31.1235 163.614 31.4095 161.615 31.3728H156.585V39.9705H159.254C160.168 39.9316 161.079 40.1062 161.915 40.4802C162.601 40.8822 163.175 41.449 163.586 42.1293L177.124 62.7429C177.59 63.4745 178.225 64.0837 178.975 64.5194C179.789 64.9595 180.704 65.1767 181.629 65.149H192.408L176.277 41.3497Z" fill="url(#paint1_linear_2_5)"/>
<path d="M1.54127 41.2298H0.859146V31.8225H1.54127V41.2298Z" fill="#39A6EF"/>
<path d="M5.07182 31.845C5.11799 31.8693 5.15681 31.9056 5.18425 31.9499L11.2859 40.1129C11.2663 39.9863 11.2538 39.8586 11.2484 39.7306V31.8225H11.8481V41.2298H11.5257C11.4763 41.2307 11.4276 41.2187 11.3842 41.1951C11.3408 41.1714 11.3044 41.1369 11.2784 41.0949L5.16926 32.9319C5.16926 33.0668 5.16926 33.1942 5.16926 33.3142V41.2298H4.59208V31.8225H4.9219C4.97285 31.8203 5.02375 31.8279 5.07182 31.845Z" fill="#39A6EF"/>
<path d="M19.224 32.9844C19.2093 33.0179 19.1852 33.0464 19.1546 33.0664C19.1239 33.0864 19.0881 33.0969 19.0516 33.0968C18.9654 33.0781 18.887 33.0337 18.8267 32.9694C18.7128 32.8683 18.5899 32.7779 18.4594 32.6995C18.2749 32.5866 18.0789 32.4936 17.8747 32.4222C17.5941 32.3313 17.3001 32.2882 17.0052 32.2947C16.6988 32.2901 16.394 32.3409 16.1057 32.4447C15.862 32.5328 15.6379 32.6678 15.4461 32.8419C15.2763 33.0086 15.1412 33.2074 15.0488 33.4266C14.9594 33.6482 14.9136 33.8849 14.9138 34.1237C14.9028 34.4026 14.9732 34.6787 15.1162 34.9183C15.2541 35.1312 15.4355 35.3126 15.6484 35.4505C15.8835 35.6031 16.1349 35.7288 16.398 35.8253L17.2675 36.1176C17.5674 36.2151 17.8597 36.3275 18.1371 36.4399C18.4045 36.5553 18.6564 36.7038 18.8866 36.8822C19.1316 37.0745 19.3273 37.3223 19.4577 37.6051C19.588 37.8879 19.6492 38.1977 19.6362 38.5088C19.6392 38.8905 19.5706 39.2693 19.4338 39.6257C19.3057 39.9662 19.1064 40.2754 18.8492 40.5327C18.5774 40.8007 18.2533 41.01 17.8972 41.1473C17.4905 41.3015 17.0577 41.3753 16.6229 41.3647C16.0619 41.3799 15.505 41.2644 14.9963 41.0274C14.5465 40.8046 14.1443 40.4966 13.812 40.1204L13.9994 39.8281C14.0257 39.7885 14.0635 39.7579 14.1077 39.7405C14.152 39.723 14.2005 39.7196 14.2467 39.7306C14.3057 39.7385 14.3608 39.7648 14.4041 39.8056L14.629 40.0005C14.7309 40.0922 14.8386 40.1773 14.9513 40.2553C15.0841 40.3555 15.2274 40.4409 15.3786 40.5102C15.5623 40.592 15.7529 40.6572 15.9483 40.7051C16.1937 40.764 16.4455 40.7917 16.6979 40.7875C17.038 40.7922 17.376 40.7337 17.6948 40.6151C17.9735 40.5161 18.2287 40.3604 18.4444 40.1579C18.6429 39.9577 18.8007 39.721 18.9091 39.4608C19.0146 39.1857 19.068 38.8934 19.0665 38.5988C19.0799 38.3101 19.0097 38.0238 18.8642 37.7742C18.7279 37.5554 18.5432 37.3708 18.3245 37.2345C18.0899 37.083 17.8383 36.9598 17.5749 36.8672L16.6454 36.5824C16.3395 36.4955 16.0392 36.3904 15.7459 36.2675C15.4753 36.1586 15.2226 36.0095 14.9963 35.8253C14.7711 35.6437 14.5871 35.4163 14.4566 35.1582C14.309 34.8417 14.2372 34.4953 14.2467 34.1462C14.2463 33.8326 14.3074 33.5219 14.4266 33.2317C14.5508 32.9499 14.7291 32.6953 14.9513 32.4821C15.1996 32.2463 15.4928 32.0628 15.8133 31.9424C16.1842 31.8017 16.5786 31.733 16.9752 31.7401C17.4258 31.7321 17.8737 31.8109 18.2945 31.9724C18.699 32.143 19.062 32.3987 19.3589 32.722L19.224 32.9844Z" fill="#39A6EF"/>
<path d="M22.4921 37.4819V41.2298H21.8175V31.8225H24.2462C25.1436 31.7639 26.0322 32.0299 26.7498 32.5721C27.0362 32.8317 27.2605 33.1525 27.4058 33.5106C27.5512 33.8688 27.6139 34.2552 27.5893 34.641C27.5938 35.0322 27.5173 35.4201 27.3644 35.7803C27.2098 36.1249 26.9822 36.4318 26.6973 36.6798C26.3882 36.9401 26.0319 37.1386 25.6479 37.2645C25.1947 37.4081 24.7216 37.4789 24.2462 37.4744L22.4921 37.4819ZM22.4921 36.9347H24.2462C24.6279 36.9394 25.0078 36.8812 25.3705 36.7623C25.6911 36.6512 25.9866 36.478 26.2401 36.2526C26.468 36.0443 26.6471 35.7884 26.7648 35.503C26.8928 35.218 26.9568 34.9084 26.9522 34.596C26.9574 34.2918 26.8964 33.9901 26.7734 33.7118C26.6505 33.4336 26.4685 33.1853 26.2401 32.9844C25.6685 32.5538 24.9597 32.3459 24.2462 32.3997H22.4921V36.9347Z" fill="#39A6EF"/>
<path d="M35.1826 31.8225V32.3847H30.2204V36.2001H34.3506V36.7323H30.2204V40.6676H35.1826V41.2298H29.5307V31.8225H35.1826Z" fill="#39A6EF"/>
<path d="M44.2301 39.6632C44.2509 39.6624 44.2717 39.666 44.2911 39.6738C44.3104 39.6815 44.3279 39.6932 44.3425 39.7081L44.6049 39.993C44.2145 40.4168 43.7395 40.7538 43.2107 40.9824C42.9217 41.107 42.6201 41.2 42.3112 41.2598C41.9573 41.3223 41.5985 41.3524 41.2392 41.3497C40.6232 41.3567 40.0119 41.242 39.4402 41.0124C38.9121 40.7894 38.4369 40.4573 38.046 40.0379C37.6456 39.6032 37.3349 39.0937 37.1315 38.5388C36.9081 37.9007 36.799 37.2283 36.8092 36.5524C36.8014 35.8851 36.9157 35.2221 37.1465 34.596C37.3572 34.0377 37.6784 33.5278 38.091 33.0968C38.5014 32.6657 39 32.3282 39.5527 32.1074C40.1486 31.8704 40.7854 31.7532 41.4266 31.7625C41.7406 31.7594 42.0542 31.7845 42.3636 31.8375C42.6349 31.8841 42.901 31.9569 43.1582 32.0549C43.4023 32.1506 43.6359 32.2712 43.8553 32.4147C44.0792 32.5614 44.2921 32.7243 44.4924 32.9019L44.2901 33.2017C44.2732 33.2297 44.2487 33.2523 44.2196 33.2669C44.1904 33.2815 44.1576 33.2875 44.1251 33.2842C44.0669 33.2789 44.0118 33.2553 43.9677 33.2167L43.7579 32.9844C43.6604 32.9169 43.548 32.8344 43.4055 32.752C43.2521 32.664 43.0916 32.5888 42.9258 32.5271C42.7158 32.4527 42.5003 32.395 42.2812 32.3547C42.0064 32.3074 41.7279 32.2849 41.4491 32.2872C40.9079 32.2807 40.3706 32.38 39.8675 32.5796C39.3999 32.7712 38.9783 33.0599 38.6307 33.4266C38.2738 33.8124 37.9985 34.2662 37.8211 34.7609C37.6198 35.3234 37.5208 35.9175 37.5288 36.5149C37.5199 37.1216 37.6163 37.7252 37.8137 38.2989C37.9887 38.7914 38.2586 39.2447 38.6082 39.6332C38.9425 39.9983 39.3516 40.2872 39.8075 40.4802C40.2837 40.6726 40.7931 40.7694 41.3067 40.765C41.6104 40.7675 41.9137 40.745 42.2137 40.6976C42.4699 40.6601 42.7213 40.5947 42.9633 40.5027C43.1805 40.4123 43.3887 40.3019 43.5854 40.1729C43.7836 40.0369 43.9715 39.8866 44.1476 39.7231L44.2076 39.6781C44.2145 39.6723 44.2221 39.6673 44.2301 39.6632Z" fill="#39A6EF"/>
<path d="M52.9328 31.8225V32.3997H49.6196V41.2298H48.9375V32.3997H45.6093V31.8225H52.9328Z" fill="#39A6EF"/>
<path d="M55.4738 41.2298H54.7842V31.8225H55.4738V41.2298Z" fill="#39A6EF"/>
<path d="M66.95 36.5299C66.9601 37.2034 66.8509 37.8733 66.6277 38.5088C66.4265 39.0665 66.1127 39.5768 65.7057 40.008C65.3064 40.4279 64.8239 40.7598 64.289 40.9824C63.7051 41.2159 63.0812 41.333 62.4525 41.3272C61.831 41.3324 61.2147 41.2152 60.6385 40.9824C60.1036 40.77 59.6205 40.4454 59.2218 40.0305C58.8147 39.598 58.4987 39.0882 58.2923 38.5313C57.8525 37.2512 57.8525 35.861 58.2923 34.581C58.5001 34.0248 58.816 33.5153 59.2218 33.0818C59.6183 32.6587 60.1016 32.3263 60.6385 32.1074C61.2136 31.8711 61.8307 31.7538 62.4525 31.7625C63.0807 31.7544 63.7046 31.869 64.289 32.0999C64.8258 32.3225 65.3088 32.6573 65.7057 33.0818C66.1112 33.5141 66.4248 34.0241 66.6277 34.581C66.8478 35.2069 66.9568 35.8664 66.95 36.5299ZM66.2454 36.5299C66.2518 35.9289 66.1581 35.3311 65.968 34.7609C65.8075 34.2715 65.5529 33.8183 65.2184 33.4266C64.8878 33.0591 64.4776 32.7719 64.0191 32.5871C63.5251 32.393 62.9982 32.2962 62.4675 32.3022C61.9542 32.3007 61.4453 32.3974 60.9683 32.5871C60.5108 32.7738 60.101 33.0607 59.769 33.4266C59.43 33.8151 59.1748 34.2693 59.0194 34.7609C58.6494 35.9138 58.6494 37.1535 59.0194 38.3064C59.1727 38.7967 59.4282 39.2488 59.769 39.6332C60.0849 39.9991 60.4795 40.2887 60.9233 40.4802C61.3993 40.6732 61.9089 40.77 62.4225 40.765C62.9636 40.7788 63.5018 40.6819 64.0041 40.4802C64.4706 40.2987 64.8869 40.0083 65.2184 39.6332C65.5543 39.2454 65.8092 38.7942 65.968 38.3064C66.1581 37.7337 66.2518 37.1333 66.2454 36.5299Z" fill="#39A6EF"/>
<path d="M69.6485 31.845C69.6947 31.8693 69.7335 31.9055 69.7609 31.9499L75.8625 40.1129C75.8555 39.9856 75.8555 39.8579 75.8625 39.7306V31.8225H76.4622V41.2298H76.1399C76.0905 41.2307 76.0417 41.2187 75.9984 41.1951C75.955 41.1714 75.9185 41.1369 75.8925 41.0949L69.716 32.9319C69.716 33.0668 69.716 33.1942 69.716 33.3142V41.2298H69.1238V31.8225H69.4536C69.5194 31.8136 69.5864 31.8213 69.6485 31.845Z" fill="#39A6EF"/>
<path d="M6.0013 52.4735C6.0325 52.4606 6.06754 52.4606 6.09874 52.4735L6.30863 52.7059C6.15065 52.8739 5.97752 53.027 5.79141 53.1632C5.59962 53.3 5.39352 53.4156 5.17675 53.508C4.93723 53.6122 4.68531 53.6853 4.42717 53.7253C4.13815 53.7809 3.84446 53.8085 3.55016 53.8078C3.05162 53.815 2.55685 53.7206 2.09596 53.5305C1.66187 53.3535 1.27266 53.0821 0.956595 52.7359C0.626261 52.3781 0.371335 51.9575 0.207011 51.4991C0.0492677 50.9823 -0.0191761 50.4423 0.004623 49.9025C-0.00185641 49.3608 0.0895616 48.8225 0.274473 48.3133C0.441668 47.8563 0.696268 47.4362 1.02406 47.0765C1.37091 46.7233 1.79036 46.4497 2.25338 46.2745C2.7301 46.0839 3.23914 45.9872 3.75254 45.9896C4.00396 45.9887 4.25492 46.0113 4.50213 46.0571C4.72237 46.0922 4.9384 46.15 5.14677 46.2295C5.34475 46.3103 5.53536 46.4081 5.71645 46.5218C5.89904 46.6405 6.07198 46.7733 6.23367 46.9191L6.06876 47.1665C6.0539 47.1879 6.03346 47.2047 6.00967 47.2153C5.98589 47.2259 5.95966 47.2297 5.93383 47.2265C5.88679 47.2232 5.84206 47.2048 5.8064 47.174L5.61151 47.0316L5.33417 46.8517C5.20945 46.7789 5.0791 46.7162 4.94438 46.6643C4.77286 46.6051 4.59757 46.5575 4.41967 46.5218C4.19908 46.487 3.97582 46.472 3.75254 46.4769C3.31347 46.4695 2.87745 46.5511 2.47075 46.7167C2.103 46.8717 1.77313 47.1044 1.50379 47.3989C1.20965 47.7077 0.984769 48.0756 0.844157 48.4783C0.682803 48.9354 0.604119 49.4177 0.611786 49.9025C0.602946 50.3971 0.681613 50.8894 0.844157 51.3567C0.964388 51.7681 1.17143 52.1489 1.45132 52.4735C1.72094 52.7658 2.05088 52.996 2.41828 53.1482C2.80338 53.3063 3.21635 53.3853 3.63261 53.3805C3.88353 53.3851 4.13436 53.3675 4.38219 53.3281C4.58411 53.2944 4.78238 53.2417 4.97437 53.1707C5.1509 53.0988 5.31927 53.0084 5.47659 52.9008C5.63906 52.7722 5.78959 52.6292 5.92634 52.4735H6.0013Z" fill="#39A6EF"/>
<path d="M12.5302 46.0796V46.5369H8.50491V49.6326H11.8556V50.0824H8.50491V53.2756H12.5302V53.7329H7.94273V46.0796H12.5302Z" fill="#39A6EF"/>
<path d="M14.9139 50.2698V53.7329H14.3592V46.0796H16.3156C17.0135 46.0253 17.7096 46.2046 18.2945 46.5893C18.5157 46.7688 18.6909 46.9984 18.8057 47.2591C18.9204 47.5198 18.9713 47.8042 18.9541 48.0885C18.9578 48.3639 18.9042 48.637 18.7967 48.8905C18.7009 49.1326 18.5523 49.3502 18.3619 49.5277C18.1626 49.7163 17.9318 49.8686 17.6798 49.9774C17.3913 50.1013 17.0854 50.1797 16.7728 50.2098C16.8641 50.2659 16.9432 50.3398 17.0052 50.4272L19.6437 53.7329H19.164C19.1148 53.7456 19.0632 53.7456 19.0141 53.7329C18.9673 53.7065 18.9265 53.6708 18.8941 53.6279L16.443 50.5171C16.389 50.4474 16.3198 50.391 16.2406 50.3522C16.1383 50.3113 16.0283 50.2933 15.9183 50.2998L14.9139 50.2698ZM14.9139 49.8575H16.2481C16.5547 49.8628 16.8604 49.8224 17.1551 49.7376C17.403 49.6688 17.6348 49.5516 17.8372 49.3928C18.0186 49.2444 18.1646 49.0575 18.2645 48.8456C18.3669 48.6093 18.4155 48.3533 18.4069 48.096C18.4253 47.8654 18.3863 47.6338 18.2935 47.4219C18.2006 47.21 18.0567 47.0244 17.8747 46.8817C17.4096 46.5887 16.8641 46.4497 16.3156 46.4844H14.9139V49.8575Z" fill="#39A6EF"/>
<path d="M25.6479 46.0796V46.5519H22.9569V53.7329H22.4022V46.5519H19.6962V46.0796H25.6479Z" fill="#39A6EF"/>
<path d="M27.5893 53.7329H27.0346V46.0796H27.5893V53.7329Z" fill="#39A6EF"/>
<path d="M34.4855 46.0796V46.5369H30.4827V49.7601H33.9758V50.2248H30.4827V53.7404H29.928V46.0796H34.4855Z" fill="#39A6EF"/>
<path d="M36.7342 53.7329H36.1796V46.0796H36.7342V53.7329Z" fill="#39A6EF"/>
<path d="M44.6349 52.4735C44.6488 52.4663 44.6642 52.4626 44.6798 52.4626C44.6955 52.4626 44.7109 52.4663 44.7248 52.4735L44.9422 52.7059C44.7842 52.8739 44.6111 53.027 44.425 53.1632C44.2332 53.3 44.0271 53.4156 43.8103 53.508C43.5704 53.6112 43.3186 53.6842 43.0607 53.7254C42.7717 53.7809 42.478 53.8085 42.1837 53.8078C41.6829 53.814 41.1858 53.7197 40.722 53.5305C40.2912 53.3515 39.9049 53.0803 39.5902 52.7359C39.2598 52.3781 39.0049 51.9575 38.8406 51.4991C38.6608 50.981 38.572 50.4358 38.5782 49.8875C38.5717 49.3459 38.6632 48.8075 38.8481 48.2984C39.0153 47.8413 39.2699 47.4212 39.5977 47.0615C39.9315 46.7137 40.3351 46.4403 40.782 46.2595C41.2587 46.0689 41.7678 45.9722 42.2812 45.9747C42.5326 45.9737 42.7835 45.9963 43.0308 46.0421C43.251 46.0772 43.467 46.135 43.6754 46.2145C43.8734 46.2953 44.064 46.3931 44.2451 46.5069C44.4263 46.6273 44.5991 46.7601 44.7623 46.9041L44.5974 47.1515C44.5825 47.1729 44.5621 47.1898 44.5383 47.2003C44.5145 47.2109 44.4883 47.2148 44.4625 47.2115C44.4154 47.2083 44.3707 47.1898 44.335 47.159L44.2301 47.0316L43.9527 46.8517C43.828 46.7789 43.6977 46.7162 43.563 46.6643C43.3892 46.6042 43.2113 46.5566 43.0308 46.5219C42.808 46.4834 42.5821 46.4658 42.3561 46.4694C41.9171 46.462 41.481 46.5436 41.0743 46.7092C40.6924 46.8616 40.3493 47.0972 40.0699 47.3989C39.7758 47.7077 39.5509 48.0756 39.4103 48.4783C39.2489 48.9354 39.1702 49.4177 39.1779 49.9025C39.1691 50.3971 39.2477 50.8894 39.4103 51.3567C39.5416 51.7713 39.7616 52.1524 40.0549 52.4735C40.3245 52.7658 40.6545 52.996 41.0219 53.1482C41.407 53.3063 41.8199 53.3853 42.2362 53.3805C42.4871 53.3851 42.7379 53.3675 42.9858 53.3281C43.1877 53.2944 43.386 53.2417 43.578 53.1707C43.7545 53.0989 43.9229 53.0084 44.0802 52.9008C44.2426 52.7722 44.3932 52.6292 44.5299 52.4735H44.5824H44.6349Z" fill="#39A6EF"/>
<path d="M52.3106 53.7329H51.8833C51.8377 53.7364 51.7924 53.723 51.7559 53.6954C51.725 53.665 51.6997 53.6295 51.681 53.5905L50.7814 51.3417H47.0335L46.134 53.5905C46.1188 53.6314 46.0929 53.6677 46.0591 53.6954C46.0207 53.7189 45.9767 53.7319 45.9316 53.7329H45.5044L48.6376 46.0796H49.1923L52.3106 53.7329ZM47.1834 50.9744H50.6165L49.0499 47.1065L48.975 46.8967C48.975 46.8217 48.9225 46.7393 48.9 46.6493C48.9 46.7393 48.8475 46.8217 48.825 46.8967C48.8025 46.9716 48.7726 47.0466 48.7501 47.114L47.1834 50.9744Z" fill="#39A6EF"/>
<path d="M57.7601 46.0796V46.5519H55.0691V53.7329H54.5219V46.5519H51.8159V46.0796H57.7601Z" fill="#39A6EF"/>
<path d="M59.7015 53.7329H59.1468V46.0796H59.7015V53.7329Z" fill="#39A6EF"/>
<path d="M68.8689 49.9025C68.8789 50.4511 68.79 50.997 68.6066 51.5141C68.4411 51.972 68.1863 52.3924 67.857 52.7509C67.5295 53.0759 67.1393 53.331 66.7101 53.5005C66.234 53.6925 65.7242 53.7868 65.2109 53.7778C64.6975 53.7891 64.1872 53.6947 63.7118 53.5005C63.2795 53.3328 62.8865 53.0776 62.5574 52.7509C62.2281 52.3924 61.9733 51.972 61.8078 51.5141C61.448 50.4724 61.448 49.3401 61.8078 48.2984C61.9733 47.8405 62.2281 47.4201 62.5574 47.0616C62.8851 46.7205 63.281 46.4523 63.7193 46.2745C64.1942 46.0778 64.7045 45.9808 65.2184 45.9897C65.7314 45.9845 66.2405 46.0786 66.7176 46.267C67.1518 46.4477 67.5428 46.7185 67.8645 47.0616C68.1938 47.4201 68.4486 47.8405 68.6141 48.2984C68.7944 48.8135 68.8807 49.3568 68.8689 49.9025ZM68.2992 49.9025C68.3062 49.4135 68.2301 48.9269 68.0744 48.4633C67.9479 48.0658 67.7412 47.6984 67.4672 47.3839C67.1985 47.0853 66.8652 46.852 66.4927 46.7018C66.0875 46.5414 65.654 46.4649 65.2184 46.4769C64.7923 46.4699 64.3691 46.549 63.9741 46.7093C63.6016 46.8595 63.2683 47.0928 62.9997 47.3914C62.7136 47.7023 62.4965 48.0701 62.3625 48.4708C62.0629 49.4094 62.0629 50.4181 62.3625 51.3567C62.4911 51.7511 62.6975 52.1156 62.9697 52.4286C63.2407 52.7227 63.5735 52.9531 63.9441 53.1032C64.3391 53.2635 64.7623 53.3426 65.1885 53.3356C65.6195 53.3431 66.0478 53.2641 66.4478 53.1032C66.8184 52.9531 67.1512 52.7227 67.4222 52.4286C67.6986 52.1132 67.91 51.7464 68.0444 51.3492C68.2109 50.8849 68.2971 50.3957 68.2992 49.9025Z" fill="#39A6EF"/>
<path d="M70.9228 46.0946C70.9581 46.1156 70.9887 46.1437 71.0127 46.1771L75.9675 52.8184C75.9675 52.7059 75.9675 52.601 75.9675 52.5036V46.0796H76.4622V53.7329H76.1998C76.1599 53.7342 76.1203 53.7253 76.0849 53.7069C76.0494 53.6885 76.0193 53.6613 75.9975 53.6279L71.0202 46.9791C71.0202 47.0916 71.0202 47.189 71.0202 47.2939V53.7329H70.5405V46.0796H70.8103L70.9228 46.0946Z" fill="#39A6EF"/>
<path d="M1.27142 61.8958V64.5569H0.844162V58.6651H2.34333C2.87283 58.6323 3.39872 58.7717 3.8425 59.0624C4.01276 59.2003 4.1473 59.3773 4.23472 59.5782C4.32214 59.7791 4.35987 59.9982 4.34472 60.2168C4.34695 60.4223 4.30834 60.6261 4.23114 60.8166C4.15393 61.007 4.03966 61.1802 3.89497 61.3262C3.73937 61.4681 3.56228 61.5845 3.37026 61.671C3.14862 61.7654 2.91325 61.8236 2.67315 61.8434C2.74364 61.8887 2.80472 61.9473 2.85305 62.0158L4.87692 64.5569H4.53961C4.50002 64.5647 4.45927 64.5647 4.41968 64.5569C4.38361 64.5337 4.35293 64.503 4.32973 64.4669L2.44078 62.0607C2.40252 62.0061 2.35091 61.9623 2.29086 61.9333C2.2091 61.9046 2.12257 61.8918 2.036 61.8958H1.27142ZM1.27142 61.581H2.29086C2.53268 61.5814 2.77304 61.5435 3.00296 61.4686C3.19512 61.4171 3.37402 61.3251 3.52767 61.1987C3.6674 61.0869 3.77799 60.9428 3.84999 60.779C3.92678 60.6069 3.96515 60.4202 3.96243 60.2318C3.97553 60.0545 3.94556 59.8767 3.87507 59.7136C3.80459 59.5504 3.69569 59.4067 3.55766 59.2948C3.19893 59.0722 2.77959 58.9674 2.35832 58.9949H1.27142V61.581Z" fill="#39A6EF"/>
<path d="M11.2484 58.6651V59.0249H8.11513V61.4011H10.7012V61.7534H8.11513V64.2046H11.2484V64.5569H7.68787V58.6651H11.2484Z" fill="#39A6EF"/>
<path d="M16.8553 64.2795C17.04 64.2917 17.2253 64.2917 17.41 64.2795C17.5673 64.2601 17.7228 64.2275 17.8747 64.1821C18.0139 64.1445 18.1494 64.0943 18.2795 64.0321C18.4069 63.9722 18.5418 63.9047 18.6693 63.8298V62.2181H17.5374C17.5129 62.2252 17.4869 62.2252 17.4624 62.2181C17.4537 62.1965 17.4537 62.1723 17.4624 62.1507V61.9183H19.089V64.0097C18.9428 64.1119 18.79 64.2045 18.6318 64.287C18.469 64.3711 18.2982 64.4389 18.1221 64.4894C17.9311 64.5466 17.7355 64.5868 17.5374 64.6093C17.3114 64.6405 17.0834 64.6555 16.8553 64.6543C16.458 64.6607 16.0633 64.5894 15.6934 64.4444C15.3517 64.3082 15.0426 64.1013 14.7864 63.8373C14.5318 63.5607 14.3333 63.2374 14.2017 62.8853C14.0625 62.4854 13.994 62.0644 13.9994 61.641C13.9933 61.22 14.0618 60.8013 14.2017 60.4042C14.333 60.0502 14.5344 59.7264 14.7939 59.4522C15.057 59.186 15.3739 58.979 15.7234 58.845C16.1167 58.6996 16.5335 58.6284 16.9527 58.6351C17.161 58.6338 17.369 58.6489 17.5749 58.6801C17.7561 58.7082 17.9343 58.7534 18.1071 58.815C18.2656 58.8738 18.4186 58.9466 18.5643 59.0324C18.7089 59.1215 18.8445 59.2244 18.9691 59.3397L18.8567 59.5196C18.846 59.538 18.8307 59.5533 18.8123 59.5638C18.7939 59.5744 18.773 59.5798 18.7517 59.5796C18.7298 59.5865 18.7062 59.5865 18.6843 59.5796C18.6186 59.5521 18.5579 59.5141 18.5044 59.4672C18.4043 59.3907 18.2962 59.3253 18.182 59.2723C18.0213 59.195 17.853 59.1347 17.6798 59.0924C17.4341 59.036 17.1822 59.0108 16.9302 59.0174C16.5772 59.0122 16.2263 59.0733 15.8958 59.1973C15.5942 59.3145 15.3223 59.4969 15.0994 59.7315C14.8765 59.966 14.7082 60.2469 14.6065 60.5541C14.4826 60.908 14.4217 61.281 14.4266 61.656C14.4205 62.0384 14.4814 62.4189 14.6065 62.7803C14.713 63.0902 14.8842 63.3738 15.1087 63.6124C15.3155 63.8437 15.5717 64.0256 15.8583 64.1446C16.1792 64.252 16.5174 64.2978 16.8553 64.2795Z" fill="#39A6EF"/>
<path d="M22.8519 64.5569H22.4247V58.6651H22.8519V64.5569Z" fill="#39A6EF"/>
<path d="M29.3284 59.3847C29.3193 59.4071 29.3038 59.4262 29.2837 59.4396C29.2636 59.4529 29.24 59.46 29.2159 59.4597C29.1631 59.4477 29.1157 59.4188 29.081 59.3772C29.0067 59.3156 28.9291 59.2581 28.8486 59.2048C28.7328 59.1343 28.6096 59.0765 28.4813 59.0324C28.3071 58.9766 28.1245 58.9512 27.9416 58.9575C27.7479 58.9538 27.5551 58.9842 27.3719 59.0474C27.2222 59.1026 27.0846 59.1867 26.9672 59.2948C26.8583 59.3988 26.7716 59.5237 26.7123 59.6621C26.6583 59.8033 26.6304 59.9532 26.6299 60.1043C26.6253 60.2779 26.6694 60.4493 26.7573 60.5991C26.8444 60.7322 26.9595 60.8448 27.0946 60.9289C27.241 61.027 27.3998 61.1052 27.5668 61.1613L28.114 61.3486C28.2939 61.4086 28.4813 61.4761 28.6537 61.551C28.8239 61.6166 28.9831 61.7076 29.126 61.8209C29.2662 61.933 29.3811 62.0735 29.4633 62.2332C29.5523 62.4229 29.596 62.6308 29.5907 62.8403C29.5912 63.0785 29.548 63.3148 29.4633 63.5374C29.3805 63.7501 29.2556 63.9439 29.096 64.1071C28.9176 64.2636 28.7117 64.3856 28.4888 64.4669C28.2319 64.5603 27.9601 64.606 27.6868 64.6018C27.341 64.6105 26.9978 64.5413 26.6823 64.3995C26.3983 64.2625 26.1437 64.0715 25.9327 63.8373L26.0527 63.6499C26.0655 63.6318 26.0823 63.617 26.1018 63.6066C26.1213 63.5962 26.143 63.5905 26.1651 63.5899C26.2017 63.5936 26.236 63.6094 26.2626 63.6349L26.405 63.7623L26.6074 63.9197C26.6898 63.9841 26.7806 64.0371 26.8772 64.0771C26.9892 64.1316 27.1076 64.1719 27.2295 64.1971C27.3789 64.2352 27.5327 64.2528 27.6868 64.2495C27.8988 64.252 28.1095 64.2164 28.3089 64.1446C28.4825 64.0806 28.6408 63.981 28.7737 63.8523C28.9027 63.7313 29.0027 63.5827 29.066 63.4175C29.1335 63.2457 29.1666 63.0623 29.1635 62.8778C29.1722 62.699 29.1279 62.5217 29.036 62.3681C28.9514 62.2309 28.8359 62.1154 28.6987 62.0308C28.5507 61.9356 28.3922 61.8576 28.2265 61.7984L27.7392 61.6485C27.5518 61.5885 27.3719 61.5211 27.192 61.4461C27.0221 61.3801 26.863 61.2891 26.7198 61.1762C26.5818 61.0589 26.4674 60.9165 26.3825 60.7565C26.2888 60.5571 26.2402 60.3396 26.2401 60.1193C26.2401 59.9239 26.2783 59.7304 26.3525 59.5497C26.4279 59.3685 26.5402 59.2051 26.6823 59.0699C26.836 58.9202 27.0201 58.8051 27.222 58.7326C27.4602 58.6381 27.7156 58.5947 27.9716 58.6052C28.253 58.6006 28.5326 58.649 28.7962 58.7476C29.0434 58.8495 29.2677 58.9998 29.4558 59.1898L29.3284 59.3847Z" fill="#39A6EF"/>
<path d="M36.3894 58.6651V59.0324H34.3206V64.5569H33.8933V59.0324H31.8095V58.6651H36.3894Z" fill="#39A6EF"/>
<path d="M39.6726 61.8958V64.5569H39.2453V58.6651H40.7445C41.2741 58.6313 41.8004 58.7707 42.2437 59.0624C42.4139 59.2004 42.5485 59.3773 42.6359 59.5782C42.7233 59.7791 42.7611 59.9982 42.7459 60.2168C42.7491 60.4271 42.7109 60.6359 42.6335 60.8314C42.5554 61.0174 42.4407 61.1856 42.2962 61.3262C42.1419 61.4698 41.9645 61.5864 41.7714 61.671C41.5498 61.7654 41.3144 61.8236 41.0743 61.8434C41.1448 61.8887 41.2059 61.9473 41.2542 62.0158L43.2856 64.5569H42.9108C42.8738 64.5655 42.8354 64.5655 42.7984 64.5569C42.7707 64.5312 42.7478 64.5007 42.7309 64.4669L40.8495 62.0757C40.8084 62.0208 40.7543 61.977 40.692 61.9483C40.6128 61.92 40.5288 61.9072 40.4447 61.9108L39.6726 61.8958ZM39.6726 61.581H40.6995C40.9356 61.5861 41.171 61.5532 41.3967 61.4836C41.5888 61.4321 41.7677 61.3401 41.9214 61.2137C42.0634 61.1023 42.1765 60.9583 42.2512 60.794C42.328 60.6219 42.3663 60.4352 42.3636 60.2468C42.3807 60.0713 42.3548 59.8943 42.2882 59.7311C42.2216 59.5678 42.1163 59.4232 41.9813 59.3098C41.623 59.0863 41.2034 58.9813 40.782 59.0099H39.6726V61.581Z" fill="#39A6EF"/>
<path d="M50.5266 64.5569H50.2268C50.1952 64.5677 50.1609 64.5677 50.1293 64.5569C50.1035 64.5341 50.083 64.506 50.0694 64.4744L49.3797 62.7653H46.4788L45.7667 64.4669C45.7538 64.4989 45.7332 64.5272 45.7068 64.5494C45.6728 64.5614 45.6358 64.5614 45.6018 64.5494H45.2795L47.6932 58.6576H48.1129L50.5266 64.5569ZM46.5838 62.4205H49.2223L48.023 59.4222C47.9973 59.3695 47.9772 59.3142 47.963 59.2573C47.963 59.1973 47.963 59.1374 47.9031 59.0699C47.9031 59.1374 47.9031 59.1973 47.8431 59.2573C47.7831 59.3173 47.8431 59.3772 47.7906 59.4222L46.5838 62.4205Z" fill="#39A6EF"/>
<path d="M56.5383 58.6651V59.0324H54.4694V64.5569H54.0496V59.0324H51.9658V58.6651H56.5383Z" fill="#39A6EF"/>
<path d="M59.8589 64.5569H59.4316V58.6651H59.8589V64.5569Z" fill="#39A6EF"/>
<path d="M68.734 61.611C68.74 62.032 68.6715 62.4507 68.5316 62.8478C68.4073 63.2017 68.2107 63.5259 67.9544 63.7998C67.7066 64.0633 67.4049 64.2704 67.0699 64.4069C66.7055 64.5538 66.3159 64.6277 65.923 64.6243C65.5351 64.6275 65.1504 64.5536 64.7912 64.4069C64.4539 64.2705 64.1498 64.0635 63.8992 63.7998C63.6452 63.5255 63.4512 63.2012 63.3295 62.8478C63.0513 62.0493 63.0513 61.1802 63.3295 60.3817C63.4512 60.0282 63.6452 59.704 63.8992 59.4297C64.1498 59.166 64.4539 58.9589 64.7912 58.8225C65.1493 58.6723 65.5347 58.5982 65.923 58.6052C66.3154 58.5994 66.705 58.6707 67.0699 58.815C67.4068 58.9516 67.709 59.1616 67.9544 59.4297C68.2107 59.7036 68.4073 60.0278 68.5316 60.3817C68.6709 60.7763 68.7395 61.1925 68.734 61.611ZM68.2917 61.611C68.2982 61.2346 68.2425 60.8598 68.1268 60.5016C68.019 60.1957 67.8536 59.9133 67.6396 59.6696C67.4326 59.442 67.1762 59.2651 66.89 59.1524C66.2676 58.9127 65.5784 58.9127 64.9561 59.1524C64.6724 59.2697 64.4169 59.446 64.2065 59.6696C63.9925 59.9133 63.8271 60.1957 63.7193 60.5016C63.4831 61.2326 63.4831 62.0194 63.7193 62.7504C63.8235 63.0579 63.9893 63.341 64.2065 63.5824C64.4169 63.806 64.6724 63.9823 64.9561 64.0996C65.5784 64.3392 66.2676 64.3392 66.89 64.0996C67.1762 63.9869 67.4326 63.8099 67.6396 63.5824C67.8568 63.341 68.0226 63.0579 68.1268 62.7504C68.2464 62.3827 68.3022 61.9974 68.2917 61.611Z" fill="#39A6EF"/>
<path d="M72.1371 58.6801C72.1632 58.6987 72.186 58.7215 72.2046 58.7476L76.0199 63.8523C76.0199 63.7698 76.0199 63.6873 76.0199 63.6124V58.6651H76.3947V64.5569H76.1923C76.1622 64.5581 76.1323 64.5511 76.1059 64.5366C76.0794 64.5221 76.0575 64.5005 76.0424 64.4744L72.212 59.3622C72.212 59.4447 72.212 59.5272 72.212 59.6021V64.5569H71.8447V58.6651H72.0546L72.1371 58.6801Z" fill="#39A6EF"/>
<defs>
<linearGradient id="paint0_linear_2_5" x1="91.4314" y1="64.9541" x2="91.4314" y2="0.714773" gradientUnits="userSpaceOnUse">
<stop stop-color="#0F3062"/>
<stop offset="1" stop-color="#39A6EF"/>
</linearGradient>
<linearGradient id="paint1_linear_2_5" x1="146.136" y1="65.8611" x2="146.136" y2="0.00266932" gradientUnits="userSpaceOnUse">
<stop stop-color="#0F3062"/>
<stop offset="1" stop-color="#39A6EF"/>
</linearGradient>
</defs>
</svg>
