<svg width="76" height="47" viewBox="0 0 76 47" fill="none" xmlns="http://www.w3.org/2000/svg">
<path d="M2.10602e-10 46.3428V9.0936C-7.8848e-06 7.96719 0.221395 6.85186 0.65151 5.81159C1.08162 4.77133 1.71198 3.8266 2.50643 3.03159C3.30088 2.23659 4.24377 1.60697 5.28103 1.17883C6.31829 0.750701 7.4295 0.532488 8.55092 0.536712V37.8127C8.54743 38.9368 8.32345 40.0493 7.89177 41.0865C7.46009 42.1236 6.82917 43.0652 6.03507 43.8574C5.24098 44.6496 4.29926 45.2768 3.26374 45.7033C2.22821 46.1297 1.11918 46.347 2.10602e-10 46.3428Z" fill="url(#paint0_linear_796_1908)"/>
<path d="M64.5424 29.5018C63.8285 28.4195 62.8755 27.5172 61.7578 26.8652C63.2772 26.3963 64.7223 25.712 66.0492 24.8329C67.2568 24.0267 68.325 23.0277 69.2119 21.8755C70.0701 20.7464 70.7342 19.4811 71.1766 18.1318C71.6342 16.7158 71.8625 15.2352 71.8527 13.7464C71.8747 11.9153 71.5364 10.0978 70.8571 8.39836C70.1803 6.76351 69.1034 5.32682 67.7264 4.22152C66.1003 2.95427 64.2371 2.02852 62.2476 1.49936C59.63 0.808112 56.9298 0.484154 54.2238 0.53671H40.2687V28.5231L40.2154 32.01C40.1937 33.945 39.4599 35.8034 38.1554 37.2273C36.8509 38.6512 35.0679 39.5398 33.15 39.7219H32.8572C30.987 39.7725 29.1289 39.4073 27.4157 38.6523C25.7378 37.9334 24.2368 36.8546 23.0177 35.4916C21.7088 34.0074 20.703 32.2794 20.0574 30.4056C19.296 28.1874 18.9266 25.8526 18.9659 23.5066C18.9313 21.2081 19.3008 18.9215 20.0574 16.752C20.7147 14.8625 21.7472 13.1267 23.0923 11.65C24.3949 10.2558 25.9824 9.16119 27.7458 8.44114C29.5507 7.69241 31.2439 7.1683 34.7899 7.1683H38.5169V0.53671C36.9602 0.17213 35.3661 -0.00736994 33.7676 0.00190442C30.5045 -0.0380213 27.2639 0.550164 24.221 1.73468C21.4406 2.80815 18.9146 4.45428 16.8055 6.56721C14.6964 8.68015 13.051 11.2131 11.975 14.0031C10.8081 17.029 10.2279 20.2511 10.2659 23.4959C10.2331 26.7075 10.7518 29.9007 11.7993 32.9352C12.7479 35.6936 14.2523 38.226 16.2185 40.3744C18.1568 42.4704 20.5161 44.1292 23.1402 45.2411C26.0442 46.4448 29.1623 47.0399 32.3034 46.9899C34.9993 47.0691 37.6886 46.6801 40.2527 45.8401C45.4226 43.9683 48.4682 37.6362 48.6279 32.6999L48.7397 29.3734L48.7663 22.0038V7.12552H54.2078C57.3527 7.12552 59.6901 7.74946 61.22 8.99734C62.7499 10.2452 63.5148 12.0368 63.5148 14.3721C63.5264 15.4681 63.3332 16.5566 62.9451 17.581C62.5863 18.5434 62.0104 19.4092 61.2626 20.1106C60.4092 20.8691 59.4058 21.4377 58.3182 21.7792C56.9629 22.2057 55.548 22.4097 54.128 22.3835H50.5553V28.5177H52.4508C53.1004 28.49 53.7475 28.6145 54.3409 28.8814C54.828 29.1682 55.2362 29.5726 55.5283 30.058L65.1441 44.7651C65.4753 45.2872 65.9262 45.7218 66.4592 46.0326C67.037 46.3466 67.6873 46.5016 68.344 46.4819H76.0004L64.5424 29.5018Z" fill="url(#paint1_linear_796_1908)"/>
<defs>
<linearGradient id="paint0_linear_796_1908" x1="4.27546" y1="46.3428" x2="4.27546" y2="0.509972" gradientUnits="userSpaceOnUse">
<stop stop-color="#0F3062"/>
<stop offset="1" stop-color="#39A6EF"/>
</linearGradient>
<linearGradient id="paint1_linear_796_1908" x1="43.1332" y1="46.9899" x2="43.1332" y2="0.00190448" gradientUnits="userSpaceOnUse">
<stop stop-color="#0F3062"/>
<stop offset="1" stop-color="#39A6EF"/>
</linearGradient>
</defs>
</svg>
