<svg width="20" height="19" viewBox="0 0 20 19" fill="none" xmlns="http://www.w3.org/2000/svg">
<path d="M18.4375 0.75H15.3125C15.1172 0.75 15 0.90625 15 1.0625C15 1.25781 15.1172 1.375 15.3125 1.375H18.4375C18.9453 1.375 19.375 1.80469 19.375 2.3125V16.6875C19.375 17.2344 18.9453 17.625 18.4375 17.625H15.3125C15.1172 17.625 15 17.7812 15 17.9375C15 18.1328 15.1172 18.25 15.3125 18.25H18.4375C19.2969 18.25 20 17.5859 20 16.6875V2.3125C20 1.45312 19.2969 0.75 18.4375 0.75ZM14.8828 9.30469L7.69531 2.11719C7.65625 2.03906 7.57812 2 7.5 2C7.38281 2 7.30469 2.03906 7.26562 2.11719C7.14844 2.23438 7.14844 2.42969 7.26562 2.54688L13.9062 9.1875H0.3125C0.117188 9.1875 0 9.34375 0 9.5C0 9.69531 0.117188 9.8125 0.3125 9.8125H13.9062L7.26562 16.4922C7.14844 16.6094 7.14844 16.8047 7.26562 16.9219C7.30469 17 7.38281 17 7.5 17C7.57812 17 7.65625 17 7.69531 16.9219L14.8828 9.73438C14.9609 9.69531 15 9.57812 15 9.5C15 9.42188 14.9609 9.34375 14.8828 9.30469Z" fill="white"/>
</svg>
