<svg width="27" height="26" viewBox="0 0 27 26" fill="none" xmlns="http://www.w3.org/2000/svg">
<path d="M25.6094 25.1875C25.1406 25.6562 24.2812 25.6562 23.8125 25.1875L13.5 14.7969L3.10938 25.1875C2.64062 25.6562 1.78125 25.6562 1.3125 25.1875C0.84375 24.7188 0.84375 23.8594 1.3125 23.3906L11.7031 13L1.3125 2.6875C0.84375 2.21875 0.84375 1.35938 1.3125 0.890625C1.78125 0.421875 2.64062 0.421875 3.10938 0.890625L13.5 11.2812L23.8125 0.890625C24.2812 0.421875 25.1406 0.421875 25.6094 0.890625C26.0781 1.35938 26.0781 2.21875 25.6094 2.6875L15.2188 13L25.6094 23.3906C26.0781 23.8594 26.0781 24.7188 25.6094 25.1875Z" fill="#39A6EF"/>
</svg>
