<svg width="91" height="80" viewBox="0 0 91 80" fill="none" xmlns="http://www.w3.org/2000/svg">
<g filter="url(#filter0_d_791_1541)">
<path d="M7.90633 62.75C7.90633 67.5938 11.8126 71.5 16.6563 71.5H84.1563C84.7813 71.5 85.4063 72.125 85.4063 72.75C85.4063 73.5312 84.7813 74 84.1563 74H16.6563C10.4063 74 5.40633 69 5.40633 62.75V5.25C5.40633 4.625 5.87508 4 6.65633 4C7.28133 4 7.90633 4.625 7.90633 5.25V62.75ZM79.1563 19C79.7813 19 80.4063 19.625 80.4063 20.25V39C80.4063 39.7812 79.7813 40.25 79.1563 40.25C78.3751 40.25 77.9063 39.7812 77.9063 39V23.375L51.1876 49.9375C50.7188 50.4062 49.9376 50.4062 49.4688 49.9375L35.4063 35.875L21.1876 49.9375C20.7188 50.4062 19.9376 50.4062 19.4688 49.9375C19.0001 49.4688 19.0001 48.6875 19.4688 48.2188L34.4688 33.2188C34.9376 32.75 35.7188 32.75 36.1876 33.2188L50.4063 47.2812L76.0313 21.5H60.4063C59.6251 21.5 59.1563 21.0312 59.1563 20.25C59.1563 19.625 59.6251 19 60.4063 19H79.1563Z" fill="white"/>
</g>
<defs>
<filter id="filter0_d_791_1541" x="0.40625" y="0" width="90" height="80" filterUnits="userSpaceOnUse" color-interpolation-filters="sRGB">
<feFlood flood-opacity="0" result="BackgroundImageFix"/>
<feColorMatrix in="SourceAlpha" type="matrix" values="0 0 0 0 0 0 0 0 0 0 0 0 0 0 0 0 0 0 127 0" result="hardAlpha"/>
<feOffset dy="1"/>
<feGaussianBlur stdDeviation="2.5"/>
<feComposite in2="hardAlpha" operator="out"/>
<feColorMatrix type="matrix" values="0 0 0 0 0 0 0 0 0 0 0 0 0 0 0 0 0 0 0.75 0"/>
<feBlend mode="normal" in2="BackgroundImageFix" result="effect1_dropShadow_791_1541"/>
<feBlend mode="normal" in="SourceGraphic" in2="effect1_dropShadow_791_1541" result="shape"/>
</filter>
</defs>
</svg>
