<svg width="111" height="90" viewBox="0 0 111 90" fill="none" xmlns="http://www.w3.org/2000/svg">
<g filter="url(#filter0_d_791_1540)">
<path d="M104.534 47.75L87.5026 20.25C87.0339 19.4688 86.2526 19 85.4714 19C84.5339 19 83.7526 19.4688 83.2839 20.25L66.2526 47.5938C65.6276 48.5312 65.3151 49.4688 65.4714 50.5625C66.2526 61.0312 74.8464 69 85.4714 69C95.9401 69 104.534 61.0312 105.315 50.7188C105.471 49.625 105.159 48.5312 104.534 47.75ZM68.4401 49L85.4714 21.5C85.4714 21.5 85.3151 21.5 85.4714 21.5H85.3151L102.503 49H68.2839C68.4401 49 68.4401 49 68.4401 49ZM85.3151 66.5C76.5651 66.5 69.2214 60.0938 67.9714 51.5H102.503C101.409 60.0938 94.0651 66.5 85.3151 66.5ZM45.3151 50.7188C45.4714 49.625 45.1589 48.5312 44.5339 47.75L27.5026 20.25C27.0339 19.4688 26.2526 19 25.3151 19C24.5339 19 23.5964 19.4688 23.1276 20.25L6.25261 47.75C5.62761 48.5312 5.31511 49.625 5.47136 50.7188C6.25261 61.0312 14.8464 69 25.3151 69C35.6276 69 44.5339 61.0312 45.3151 50.7188ZM8.44011 49L25.3151 21.5L42.5026 49H8.28386C8.44011 49 8.44011 49 8.44011 49ZM8.12761 51.5H42.6589C41.4089 60.0938 34.0651 66.5 25.3151 66.5C16.7214 66.5 9.37761 60.0938 8.12761 51.5ZM89.0651 81.5H56.5651V24H56.4089C61.5651 23.375 65.4714 19.1562 65.4714 14H89.0651C89.6901 14 90.1589 13.5312 90.1589 12.75C90.1589 12.125 89.8464 11.5 89.0651 11.5H65.4714C65.3151 11.5 65.1589 11.6562 65.0026 11.6562C64.0651 7.28125 60.1589 4 55.4714 4C50.6276 4 46.7214 7.28125 45.7839 11.6562C45.6276 11.6562 45.4714 11.5 45.4714 11.5H21.7214C20.9401 11.5 20.4714 12.125 20.4714 12.75C20.4714 13.5312 20.9401 14 21.7214 14H45.3151C45.3151 19.1562 49.0651 23.375 54.0651 24C54.2214 24 54.2214 24 54.2214 24V81.5H21.7214C20.9401 81.5 20.4714 82.125 20.4714 82.75C20.4714 83.5312 20.9401 84 21.7214 84H89.0651C89.6901 84 90.1589 83.5312 90.1589 82.75C90.1589 82.125 89.8464 81.5 89.0651 81.5ZM47.9714 14C47.9714 9.9375 51.2526 6.5 55.3151 6.5C59.2214 6.5 62.6589 9.9375 62.6589 14C62.6589 18.2188 59.5339 21.5 55.4714 21.5C51.2526 21.5 47.9714 18.2188 47.9714 14Z" fill="white"/>
</g>
<defs>
<filter id="filter0_d_791_1540" x="0.315186" y="0" width="110.156" height="90" filterUnits="userSpaceOnUse" color-interpolation-filters="sRGB">
<feFlood flood-opacity="0" result="BackgroundImageFix"/>
<feColorMatrix in="SourceAlpha" type="matrix" values="0 0 0 0 0 0 0 0 0 0 0 0 0 0 0 0 0 0 127 0" result="hardAlpha"/>
<feOffset dy="1"/>
<feGaussianBlur stdDeviation="2.5"/>
<feComposite in2="hardAlpha" operator="out"/>
<feColorMatrix type="matrix" values="0 0 0 0 0 0 0 0 0 0 0 0 0 0 0 0 0 0 0.75 0"/>
<feBlend mode="normal" in2="BackgroundImageFix" result="effect1_dropShadow_791_1540"/>
<feBlend mode="normal" in="SourceGraphic" in2="effect1_dropShadow_791_1540" result="shape"/>
</filter>
</defs>
</svg>
