<svg width="24" height="26" viewBox="0 0 24 26" fill="none" xmlns="http://www.w3.org/2000/svg">
<path d="M20.8125 3.34375C20.2031 2.82812 17.7656 1.04688 12.4219 1.04688C12.4219 1.04688 6.09375 0.671875 3 3.48438C1.26562 5.21875 0.65625 7.70312 0.609375 10.8438C0.5625 13.9375 0.46875 19.7969 6.09375 21.3906V23.7812C6.09375 23.7812 6.04688 24.7656 6.70312 25C7.5 25.2344 7.92188 24.4844 8.67188 23.6875C9.09375 23.2188 9.65625 22.6094 10.0781 22.0938C13.9219 22.4219 16.875 21.6719 17.25 21.5781C18 21.2969 22.4062 20.7344 23.1094 14.9219C23.8594 8.875 22.7812 5.07812 20.8125 3.34375ZM21.4219 14.4531C20.8594 19.3281 17.25 19.6562 16.5938 19.8906C16.3125 19.9375 13.7344 20.5938 10.4531 20.4062C10.4531 20.4062 8.01562 23.3125 7.26562 24.1094C7.03125 24.3438 6.75 24.3438 6.75 23.8281C6.75 23.5 6.75 19.7969 6.75 19.7969C2.01562 18.4844 2.29688 13.5156 2.34375 10.9375C2.39062 8.3125 2.85938 6.20312 4.3125 4.75C6.9375 2.35938 12.3281 2.73438 12.3281 2.73438C16.875 2.73438 19.0312 4.14062 19.5469 4.5625C21.2344 6.01562 22.0781 9.4375 21.4219 14.4531ZM14.9062 10.7031C14.9531 11.0781 14.3438 11.125 14.3438 10.7031C14.25 9.67188 13.7812 9.20312 12.7969 9.10938C12.375 9.10938 12.4219 8.5 12.8438 8.5C14.1562 8.59375 14.8594 9.34375 14.9062 10.7031ZM15.8906 11.2188C15.9375 9.25 14.6719 7.65625 12.3281 7.51562C11.9062 7.46875 11.9531 6.85938 12.375 6.90625C15.0938 7.09375 16.5469 8.96875 16.5 11.2188C16.5 11.6406 15.8906 11.5938 15.8906 11.2188ZM18.0938 11.8281C18.0938 12.25 17.4844 12.25 17.4844 11.8281C17.4375 8.03125 14.9062 5.96875 11.8125 5.92188C11.4375 5.92188 11.4375 5.3125 11.8125 5.3125C15.2812 5.35938 18.0469 7.75 18.0938 11.8281ZM17.5312 16.4219V16.4688C17.0625 17.3594 16.0781 18.3438 15.1406 18.0156H15.0938C14.1094 17.7344 11.8125 16.5156 10.3125 15.3438C9.5625 14.7344 8.85938 14.0312 8.34375 13.375C7.875 12.7656 7.35938 12.0625 6.89062 11.1719C5.90625 9.39062 5.67188 8.54688 5.67188 8.54688C5.34375 7.60938 6.32812 6.625 7.21875 6.15625H7.26562C7.6875 5.92188 8.10938 5.96875 8.34375 6.34375C8.34375 6.34375 8.95312 7 9.1875 7.375C9.42188 7.65625 9.75 8.17188 9.89062 8.45312C10.1719 8.96875 10.0312 9.48438 9.75 9.71875L9.1875 10.1875C8.90625 10.4219 8.90625 10.8438 8.90625 10.8438C8.90625 10.8438 9.75 13.9844 12.8906 14.7812C12.8906 14.7812 13.3125 14.8281 13.5469 14.5469L13.9688 13.9844C14.2031 13.7031 14.7188 13.5156 15.2344 13.7969C15.9375 14.1719 16.7812 14.7812 17.3906 15.3438C17.7188 15.625 17.7656 16 17.5312 16.4219Z" fill="#39A6EF"/>
</svg>
